<svg width="26" height="26" viewBox="0 0 26 26" fill="none" xmlns="http://www.w3.org/2000/svg">
<path d="M14.0501 20.8873C13.9746 20.8119 13.9147 20.7222 13.8738 20.6236C13.8329 20.525 13.8118 20.4192 13.8118 20.3125C13.8118 20.2057 13.8329 20.1 13.8738 20.0013C13.9147 19.9027 13.9746 19.8131 14.0501 19.7376L19.9763 13.8125L4.06247 13.8125C3.84698 13.8125 3.64032 13.7269 3.48795 13.5745C3.33557 13.4221 3.24997 13.2155 3.24997 13C3.24997 12.7845 3.33557 12.5778 3.48795 12.4254C3.64032 12.2731 3.84698 12.1875 4.06247 12.1875L19.9763 12.1875L14.0501 6.26231C13.8977 6.10985 13.812 5.90307 13.812 5.68746C13.812 5.47185 13.8977 5.26508 14.0501 5.11262C14.2026 4.96016 14.4094 4.87451 14.625 4.87451C14.8406 4.87451 15.0474 4.96016 15.1998 5.11262L22.5123 12.4251C22.5879 12.5006 22.6478 12.5902 22.6887 12.6888C22.7296 12.7875 22.7506 12.8932 22.7506 13C22.7506 13.1067 22.7296 13.2125 22.6887 13.3111C22.6478 13.4097 22.5879 13.4993 22.5123 13.5748L15.1998 20.8873C15.1244 20.9629 15.0347 21.0228 14.9361 21.0637C14.8375 21.1046 14.7317 21.1256 14.625 21.1256C14.5182 21.1256 14.4125 21.1046 14.3138 21.0637C14.2152 21.0228 14.1256 20.9629 14.0501 20.8873Z" fill="#0347AE"/>
</svg>
