<svg width="26" height="26" viewBox="0 0 26 26" fill="none" xmlns="http://www.w3.org/2000/svg">
<path d="M14.0501 20.8878C13.9746 20.8123 13.9147 20.7227 13.8738 20.6241C13.8329 20.5255 13.8118 20.4197 13.8118 20.313C13.8118 20.2062 13.8329 20.1005 13.8738 20.0018C13.9147 19.9032 13.9746 19.8136 14.0501 19.7381L19.9763 13.813L4.06247 13.813C3.84698 13.813 3.64032 13.7274 3.48795 13.575C3.33557 13.4226 3.24997 13.2159 3.24997 13.0005C3.24997 12.785 3.33557 12.5783 3.48795 12.4259C3.64032 12.2736 3.84698 12.188 4.06247 12.188L19.9763 12.188L14.0501 6.2628C13.8977 6.11034 13.812 5.90356 13.812 5.68795C13.812 5.47234 13.8977 5.26557 14.0501 5.11311C14.2026 4.96065 14.4094 4.875 14.625 4.875C14.8406 4.875 15.0474 4.96065 15.1998 5.11311L22.5123 12.4256C22.5879 12.5011 22.6478 12.5907 22.6887 12.6893C22.7296 12.788 22.7506 12.8937 22.7506 13.0005C22.7506 13.1072 22.7296 13.213 22.6887 13.3116C22.6478 13.4102 22.5879 13.4998 22.5123 13.5753L15.1998 20.8878C15.1244 20.9633 15.0347 21.0233 14.9361 21.0642C14.8375 21.105 14.7317 21.1261 14.625 21.1261C14.5182 21.1261 14.4125 21.105 14.3138 21.0642C14.2152 21.0233 14.1256 20.9633 14.0501 20.8878Z" fill="white"/>
</svg>
