<svg viewBox="0 0 32 32" fill="none" xmlns="http://www.w3.org/2000/svg"><path d="M30.91 15.6c-.04-.1-1.1-2.45-3.45-4.8a15.9 15.9 0 0 0-11.46-4.8 15.9 15.9 0 0 0-11.46 4.8 17.6 17.6 0 0 0-3.45 4.8 1 1 0 0 0 0 .8c.04.1 1.1 2.45 3.45 4.8 3.14 3.14 7.1 4.8 11.46 4.8 4.36 0 8.32-1.66 11.46-4.8a17.68 17.68 0 0 0 3.45-4.8 1 1 0 0 0 0-.8Zm-14.91 8.4c-3.85 0-7.2-1.4-10-4.16a16.69 16.69 0 0 1-2.88-3.84 17.2 17.2 0 0 1 2.89-3.84 13.76 13.76 0 0 1 9.99-4.16c3.85 0 7.2 1.4 10 4.16a16.69 16.69 0 0 1 2.88 3.84c-.9 1.68-4.83 8-12.88 8Zm0-14a6 6 0 1 0 0 12 6 6 0 0 0 0-12Zm0 10a4 4 0 1 1 0-8 4 4 0 0 1 0 8Z" fill="#0347AE"/></svg>