<svg width="32" height="32" viewBox="0 0 32 32" fill="none" xmlns="http://www.w3.org/2000/svg">
<path d="M10.4 2.66602H21.6C25.8667 2.66602 29.3333 6.13268 29.3333 10.3993V21.5993C29.3333 23.6504 28.5186 25.6174 27.0683 27.0676C25.618 28.5179 23.651 29.3327 21.6 29.3327H10.4C6.13334 29.3327 2.66667 25.866 2.66667 21.5993V10.3993C2.66667 8.34834 3.48143 6.38134 4.93171 4.93106C6.38199 3.48078 8.349 2.66602 10.4 2.66602ZM10.1333 5.33268C8.8603 5.33268 7.6394 5.8384 6.73923 6.73857C5.83905 7.63874 5.33334 8.85964 5.33334 10.1327V21.866C5.33334 24.5193 7.48 26.666 10.1333 26.666H21.8667C23.1397 26.666 24.3606 26.1603 25.2608 25.2601C26.161 24.36 26.6667 23.1391 26.6667 21.866V10.1327C26.6667 7.47935 24.52 5.33268 21.8667 5.33268H10.1333ZM23 7.33268C23.442 7.33268 23.866 7.50828 24.1785 7.82084C24.4911 8.1334 24.6667 8.55732 24.6667 8.99935C24.6667 9.44138 24.4911 9.8653 24.1785 10.1779C23.866 10.4904 23.442 10.666 23 10.666C22.558 10.666 22.1341 10.4904 21.8215 10.1779C21.5089 9.8653 21.3333 9.44138 21.3333 8.99935C21.3333 8.55732 21.5089 8.1334 21.8215 7.82084C22.1341 7.50828 22.558 7.33268 23 7.33268ZM16 9.33268C17.7681 9.33268 19.4638 10.0351 20.714 11.2853C21.9643 12.5355 22.6667 14.2312 22.6667 15.9993C22.6667 17.7675 21.9643 19.4632 20.714 20.7134C19.4638 21.9636 17.7681 22.666 16 22.666C14.2319 22.666 12.5362 21.9636 11.286 20.7134C10.0357 19.4632 9.33334 17.7675 9.33334 15.9993C9.33334 14.2312 10.0357 12.5355 11.286 11.2853C12.5362 10.0351 14.2319 9.33268 16 9.33268ZM16 11.9993C14.9391 11.9993 13.9217 12.4208 13.1716 13.1709C12.4214 13.9211 12 14.9385 12 15.9993C12 17.0602 12.4214 18.0776 13.1716 18.8278C13.9217 19.5779 14.9391 19.9993 16 19.9993C17.0609 19.9993 18.0783 19.5779 18.8284 18.8278C19.5786 18.0776 20 17.0602 20 15.9993C20 14.9385 19.5786 13.9211 18.8284 13.1709C18.0783 12.4208 17.0609 11.9993 16 11.9993Z" fill="white"/>
</svg>
