<svg viewBox="0 0 32 32" fill="none" xmlns="http://www.w3.org/2000/svg"><path d="M10.4 2.67h11.2a7.74 7.74 0 0 1 7.73 7.73v11.2a7.73 7.73 0 0 1-7.73 7.73h-11.2a7.74 7.74 0 0 1-7.73-7.73v-11.2a7.73 7.73 0 0 1 7.73-7.73Zm-.27 2.66a4.8 4.8 0 0 0-4.8 4.8v11.74a4.8 4.8 0 0 0 4.8 4.8h11.74a4.8 4.8 0 0 0 4.8-4.8v-11.74a4.8 4.8 0 0 0-4.8-4.8h-11.74Zm12.87 2a1.67 1.67 0 1 1 0 3.34 1.67 1.67 0 0 1 0-3.34Zm-7 2a6.67 6.67 0 1 1 0 13.34 6.67 6.67 0 0 1 0-13.34Zm0 2.67a4 4 0 1 0 0 8 4 4 0 0 0 0-8Z" fill="#0347AE"/></svg>