<svg width="32" height="32" viewBox="0 0 32 32" fill="none" xmlns="http://www.w3.org/2000/svg">
<path d="M2.33333 4H29.6667C30.9547 4 32 5.04533 32 6.33333V25C32 25.6188 31.7542 26.2123 31.3166 26.6499C30.879 27.0875 30.2855 27.3333 29.6667 27.3333H2.33333C1.71449 27.3333 1.121 27.0875 0.683417 26.6499C0.245833 26.2123 0 25.6188 0 25L0 6.33333C0 5.04533 1.04533 4 2.33333 4ZM2 9.88267V25C2 25.184 2.14933 25.3333 2.33333 25.3333H29.6667C29.7551 25.3333 29.8399 25.2982 29.9024 25.2357C29.9649 25.1732 30 25.0884 30 25V9.88267L17.3067 18.46C16.5173 18.9933 15.4827 18.9933 14.6933 18.46L2 9.88267ZM2 6.33333V7.46933L15.8133 16.8027C15.8685 16.8399 15.9335 16.8598 16 16.8598C16.0665 16.8598 16.1315 16.8399 16.1867 16.8027L30 7.46933V6.33333C30 6.24493 29.9649 6.16014 29.9024 6.09763C29.8399 6.03512 29.7551 6 29.6667 6H2.33333C2.24493 6 2.16014 6.03512 2.09763 6.09763C2.03512 6.16014 2 6.24493 2 6.33333Z" fill="white"/>
</svg>
