<svg width="24" height="24" viewBox="0 0 24 24" fill="none" xmlns="http://www.w3.org/2000/svg">
<g clip-path="url(#clip0_359_2274)">
<path d="M5.48123 1.99244C5.39268 1.87853 5.28091 1.78477 5.15334 1.71738C5.02576 1.64999 4.88531 1.61051 4.74131 1.60158C4.59731 1.59264 4.45305 1.61444 4.31813 1.66554C4.1832 1.71664 4.06069 1.79586 3.95873 1.89794L2.40773 3.45044C1.68323 4.17644 1.41623 5.20394 1.73273 6.10544C3.04783 9.83611 5.18446 13.2236 7.98473 16.0174C10.7786 18.8177 14.1661 20.9543 17.8967 22.2694C18.7982 22.5859 19.8257 22.3189 20.5517 21.5944L22.1027 20.0434C22.2048 19.9415 22.284 19.819 22.3351 19.684C22.3862 19.5491 22.408 19.4049 22.3991 19.2609C22.3902 19.1169 22.3507 18.9764 22.2833 18.8488C22.2159 18.7213 22.1221 18.6095 22.0082 18.5209L18.5477 15.8299C18.4259 15.7358 18.2844 15.6704 18.1337 15.6387C17.983 15.607 17.8272 15.6098 17.6777 15.6469L14.3927 16.4674C13.9542 16.5763 13.495 16.5701 13.0596 16.4495C12.6242 16.3289 12.2272 16.0979 11.9072 15.7789L8.22323 12.0934C7.90401 11.7736 7.67276 11.3767 7.55188 10.9413C7.431 10.5059 7.42457 10.0466 7.53323 9.60794L8.35523 6.32294C8.39237 6.17352 8.3952 6.01763 8.36351 5.86696C8.33181 5.71628 8.26642 5.57474 8.17223 5.45294L5.48123 1.99244ZM2.82623 0.766942C3.08873 0.504367 3.40408 0.300638 3.75134 0.169284C4.09861 0.0379306 4.46985 -0.0180424 4.84041 0.00508205C5.21096 0.0282065 5.57236 0.129899 5.90061 0.303408C6.22885 0.476916 6.51642 0.71827 6.74423 1.01144L9.43523 4.47044C9.92873 5.10494 10.1027 5.93144 9.90773 6.71144L9.08723 9.99644C9.04511 10.1666 9.04755 10.3447 9.09431 10.5137C9.14108 10.6826 9.2306 10.8367 9.35423 10.9609L13.0397 14.6464C13.1642 14.7703 13.3184 14.86 13.4877 14.9068C13.6569 14.9535 13.8354 14.9558 14.0057 14.9134L17.2892 14.0929C17.6742 13.9973 18.0758 13.9901 18.464 14.0719C18.8521 14.1537 19.2167 14.3225 19.5302 14.5654L22.9892 17.2564C24.2327 18.2239 24.3467 20.0614 23.2337 21.1729L21.6827 22.7239C20.5727 23.8339 18.9137 24.3214 17.3672 23.7769C13.4082 22.3858 9.81404 20.1196 6.85223 17.1469C3.87979 14.1856 1.61356 10.5919 0.222233 6.63344C-0.320767 5.08844 0.166733 3.42794 1.27673 2.31794L2.82623 0.766942Z" fill="white"/>
</g>
<defs>
<clipPath id="clip0_359_2274">
<rect width="24" height="24" fill="white"/>
</clipPath>
</defs>
</svg>
