<svg viewBox="0 0 24 24" fill="none" xmlns="http://www.w3.org/2000/svg"><g clip-path="url(#a)"><path d="M5.48 2a1.02 1.02 0 0 0-1.52-.1l-1.55 1.55c-.73.73-1 1.75-.68 2.66a26.4 26.4 0 0 0 6.25 9.9 26.4 26.4 0 0 0 9.92 6.26c.9.32 1.93.05 2.65-.68l1.55-1.55a1.02 1.02 0 0 0-.1-1.52l-3.45-2.69a1.02 1.02 0 0 0-.87-.18l-3.29.82a2.62 2.62 0 0 1-2.48-.7l-3.69-3.68a2.62 2.62 0 0 1-.69-2.48l.83-3.29a1.02 1.02 0 0 0-.19-.87l-2.69-3.46Zm-2.65-1.23a2.62 2.62 0 0 1 3.91.24l2.7 3.46c.49.63.66 1.46.47 2.24l-.82 3.29a1.02 1.02 0 0 0 .26.96l3.69 3.69a1.02 1.02 0 0 0 .97.26l3.28-.82a2.63 2.63 0 0 1 2.24.48l3.46 2.69a2.6 2.6 0 0 1 .24 3.91l-1.55 1.55a4.17 4.17 0 0 1-4.31 1.06 27.9 27.9 0 0 1-10.52-6.63 27.9 27.9 0 0 1-6.63-10.52 4.17 4.17 0 0 1 1.06-4.31l1.55-1.55Z" fill="#0347AE"/></g><defs><clipPath id="a"><path fill="#fff" d="M0 0h24v24h-24z"/></clipPath></defs></svg>