<svg viewBox="0 0 32 32" fill="none" xmlns="http://www.w3.org/2000/svg"><path d="M25.4 6.55a13.09 13.09 0 0 0-9.35-3.88 13.24 13.24 0 0 0-11.45 19.81l-1.87 6.85 7-1.84a13.22 13.22 0 0 0 15.67-20.94Zm-9.35 20.32c-1.97 0-3.9-.54-5.6-1.54l-.4-.24-4.16 1.1 1.11-4.06-.27-.41a11 11 0 0 1 9.3-16.83c2.94 0 5.7 1.15 7.77 3.23a10.91 10.91 0 0 1 3.21 7.77 10.95 10.95 0 0 1-10.96 10.98Zm6.03-8.22c-.33-.16-1.96-.96-2.25-1.08-.31-.1-.52-.16-.75.16a20.8 20.8 0 0 1-1.04 1.3c-.19.22-.39.25-.72.08-.33-.16-1.4-.52-2.65-1.64a10.09 10.09 0 0 1-1.84-2.3c-.19-.33-.03-.5.14-.68.15-.14.34-.38.5-.57.16-.19.22-.33.33-.55a.63.63 0 0 0-.03-.57c-.08-.16-.74-1.79-1.01-2.45-.27-.64-.55-.56-.75-.58h-.64c-.22 0-.57.08-.88.42-.29.33-1.14 1.13-1.14 2.76 0 1.62 1.18 3.2 1.34 3.41.16.23 2.34 3.56 5.64 4.99.79.34 1.4.54 1.88.69.79.25 1.51.21 2.08.13.64-.09 1.96-.8 2.23-1.57.28-.77.28-1.43.19-1.57-.1-.15-.3-.22-.63-.38Z" fill="#0347AE"/></svg>