<svg width="32" height="32" viewBox="0 0 32 32" fill="none" xmlns="http://www.w3.org/2000/svg">
<path d="M25.4 6.54609C24.1776 5.31133 22.7216 4.33232 21.1169 3.66616C19.5121 3.00001 17.7908 2.66004 16.0533 2.6661C8.77334 2.6661 2.84 8.59943 2.84 15.8794C2.84 18.2128 3.45334 20.4794 4.6 22.4794L2.73334 29.3328L9.73334 27.4928C11.6667 28.5461 13.84 29.1061 16.0533 29.1061C23.3333 29.1061 29.2667 23.1728 29.2667 15.8928C29.2667 12.3594 27.8933 9.03943 25.4 6.54609ZM16.0533 26.8661C14.08 26.8661 12.1467 26.3328 10.4533 25.3328L10.0533 25.0928L5.89334 26.1861L7 22.1328L6.73334 21.7194C5.637 19.9687 5.05486 17.9451 5.05334 15.8794C5.05334 9.82609 9.98667 4.89276 16.04 4.89276C18.9733 4.89276 21.7333 6.03943 23.8 8.11943C24.8233 9.13805 25.6343 10.3496 26.1859 11.684C26.7375 13.0183 27.0187 14.4489 27.0133 15.8928C27.04 21.9461 22.1067 26.8661 16.0533 26.8661ZM22.08 18.6528C21.7467 18.4928 20.12 17.6928 19.8267 17.5728C19.52 17.4661 19.3067 17.4128 19.08 17.7328C18.8533 18.0661 18.2267 18.8128 18.04 19.0261C17.8533 19.2528 17.6533 19.2794 17.32 19.1061C16.9867 18.9461 15.92 18.5861 14.6667 17.4661C13.68 16.5861 13.0267 15.5061 12.8267 15.1728C12.64 14.8394 12.8 14.6661 12.9733 14.4928C13.12 14.3461 13.3067 14.1061 13.4667 13.9194C13.6267 13.7328 13.6933 13.5861 13.8 13.3728C13.9067 13.1461 13.8533 12.9594 13.7733 12.7994C13.6933 12.6394 13.0267 11.0128 12.76 10.3461C12.4933 9.7061 12.2133 9.7861 12.0133 9.77276H11.3733C11.1467 9.77276 10.8 9.85276 10.4933 10.1861C10.2 10.5194 9.34667 11.3194 9.34667 12.9461C9.34667 14.5728 10.5333 16.1461 10.6933 16.3594C10.8533 16.5861 13.0267 19.9194 16.3333 21.3461C17.12 21.6928 17.7333 21.8928 18.2133 22.0394C19 22.2928 19.72 22.2528 20.2933 22.1728C20.9333 22.0794 22.2533 21.3728 22.52 20.5994C22.8 19.8261 22.8 19.1728 22.7067 19.0261C22.6133 18.8794 22.4133 18.8128 22.08 18.6528Z" fill="white"/>
</svg>
